# xmcd
#
# Track frame offsets:
#	150
#	11722
#	25743
#	37278
#	52554
#	66427
#	80589
#	93539
#	103730
#	124781
#	140563
#	154588
#	164176
#
# Disc length: 2398 seconds
#
# Revision: 1
# Processed by: cddbd v1.5.2PL0 Copyright (c) Steve Scherf et al.
# Submitted via: audiograbber 1.82.02
#
DISCID=b2095c0d
DTITLE=Kirsty Lee Akers - Little Things
DYEAR=2007
DGENRE=Country
TTITLE0=Little Things
TTITLE1=She Ain't Gettin' Any
TTITLE2=I Think He Likes Me
TTITLE3=The Territory
TTITLE4=Goin' To The Beach
TTITLE5=The Real You
TTITLE6=Which One Of You Boys
TTITLE7=I'm Little But I'm Loud
TTITLE8=It Gets To Me
TTITLE9=I Can Always Count On You
TTITLE10=King Of Thieves
TTITLE11=If You Can't Be Good Be Gone
TTITLE12=I Dream He Dreams Of Me
EXTD=
EXTT0=
EXTT1=
EXTT2=
EXTT3=
EXTT4=
EXTT5=
EXTT6=
EXTT7=
EXTT8=
EXTT9=
EXTT10=
EXTT11=
EXTT12=
PLAYORDER=
